<svg width="202" height="129" viewBox="0 0 202 129" fill="none" xmlns="http://www.w3.org/2000/svg">
<path d="M68 4.99998C68 4.99998 69.2155 2.82215 70.5 1.99998C71.8561 1.13191 72.9059 0.772712 74.5 0.999977C76.0584 1.22217 76.8263 1.95077 78 2.99998C78.9321 3.83326 80 5.49998 80 5.49998L79 55C79 55 78.6295 65.3795 78 72C77.3098 79.2576 77.1351 83.3954 75.5 90.5C74.1701 96.2779 73.3896 99.5738 71 105C69.4862 108.437 68.5611 110.36 66.5 113.5C64.4416 116.636 63.2772 118.479 60.5 121C57.8936 123.366 56.233 124.608 53 126C49.868 127.349 47.9064 127.842 44.5 128C41.3548 128.145 39.515 127.907 36.5 127C32.6496 125.842 30.789 124.313 27.4999 122C25.2298 120.404 24.0159 119.407 21.9999 117.5C19.8913 115.505 18.811 114.269 16.9999 112C15.0737 109.587 14.108 108.136 12.4999 105.5C10.9984 103.039 10.2924 101.577 8.99995 99C6.33324 93.6829 4.66818 90.7095 2.99995 85C1.93666 81.3608 1.3984 79.2703 0.999949 75.5C0.589527 71.6164 0.749326 69.3972 0.999949 65.5C1.27819 61.1734 1.04578 58.5844 2.49995 54.5C3.70223 51.1231 4.42678 48.9955 6.99995 46.5C8.82753 44.7275 10.1162 43.8942 12.4999 43C14.7241 42.1656 16.1245 42.0069 18.4999 42C21.91 41.99 23.7666 42.9163 26.9999 44C32.8809 45.971 35.6872 48.2992 41 51.5C45.8243 54.4064 48.6003 55.9836 53 59.5C57.4233 63.0353 59.3217 65.678 63.5 69.5C71.0636 76.4188 75.3131 80.3312 83.5 86.5C89.5558 91.0631 93.1283 93.3893 99.5 97.5C103.552 100.114 105.452 102.396 110 104C114.637 105.635 117.604 105.954 122.5 105.5C126.32 105.146 128.761 105.056 132 103C133.52 102.035 134.185 101.23 135.5 100C136.508 99.0567 138 97.5 138 97.5C138 97.5 139.998 96.6628 140.5 97.5C140.914 98.1903 140 99.5 140 99.5C140 99.5 135.78 103.68 132.5 105.5C128.395 107.777 125.69 108.794 121 109C117.248 109.165 115.098 108.577 111.5 107.5C108.233 106.523 106.554 105.517 103.5 104C100.29 102.405 98.5136 101.441 95.5 99.5C92.4464 97.5333 90.8982 96.1892 88 94C80.359 88.2283 76.2856 84.7141 69 78.5C61.6344 72.2178 58.1047 67.9904 50.5 62C42.6711 55.833 38.9967 50.5221 29.4999 47.5C25.3393 46.176 22.8661 45.4936 18.4999 45.5C16.3432 45.5031 12.9999 46 12.9999 46C12.9999 46 10.0382 47.2057 8.49995 48.5C5.88637 50.6991 5.11452 52.7712 3.99995 56C2.78266 59.5263 3.14282 61.7722 2.99995 65.5C2.91769 67.6463 2.93267 68.8531 2.99995 71C3.0858 73.7393 3.02846 75.3002 3.49995 78C3.98906 80.8006 4.61076 82.2995 5.49995 85C6.6794 88.5819 7.46972 90.5533 8.99995 94C11.0554 98.6297 12.2326 101.257 14.9999 105.5C16.4509 107.724 17.2777 108.978 18.9999 111C20.7906 113.102 21.9751 114.122 23.9999 116C26.4382 118.261 27.6601 119.77 30.4999 121.5C33.7207 123.462 35.789 124.329 39.5 125C42.9586 125.625 45.082 125.819 48.5 125C52.1525 124.125 54.167 122.966 57 120.5C59.0932 118.678 59.9521 117.303 61.5 115C63.1079 112.607 63.7683 111.107 65 108.5C67.5588 103.084 68.6163 99.8278 70 94C71.2758 88.6265 72 80 72 80V51.5L68 4.99998Z" fill="black"/>
<path d="M111 59.5C111 59.5 113.642 59.5105 115 59C116.572 58.409 117.541 57.8792 118.5 56.5C119.637 54.865 119.39 53.4882 119.5 51.5C119.543 50.7202 119.5 50 119.5 49.5C119.5 49 118.5 47.5 118.5 47.5C118.5 47.5 116.496 48.5044 115.5 49.5C114.504 50.4957 114.181 51.2676 113.5 52.5C112.483 54.3407 111.995 55.456 111.5 57.5C110.993 59.5962 111 63 111 63V76C111 76 112.213 79.5884 114 81C115.028 81.812 115.711 82.2661 117 82.5C119.498 82.9532 123 80 123 80C123 80 126.583 76.8563 128.5 74.5C130.825 71.6421 131.874 69.8062 133.5 66.5C136.281 60.8437 138 51 138 51H143C143 51 143 62.2753 143 69.5C143 72.2337 142.743 73.7785 143 76.5C143.13 77.8746 143.5 80 143.5 80C143.5 80 145.043 80.1949 146 80C149.138 79.3606 151 73.5 151 73.5C151 73.5 152.93 67.6285 154.5 64C156.061 60.3938 156.637 58.1394 159 55C160.827 52.5732 164.5 49.5 164.5 49.5C164.5 49.5 168.913 47.0152 172 47C173.991 46.9902 175.209 47.1292 177 48C178.867 48.9077 179.972 49.6967 181 51.5C181.612 52.5729 181.808 53.2802 182 54.5C182.183 55.6572 182 57.5 182 57.5L181.5 58L180.5 57.5C180.5 57.5 179.775 55.2693 179 54C178.206 52.6983 177.859 51.6923 176.5 51C174.934 50.2023 173.657 50.4157 172 51C169.72 51.8037 169.196 53.5632 167.75 55.5C165.53 58.4737 164.92 60.571 163.5 64C162.626 66.1117 162.08 67.2893 161.5 69.5C160.849 71.9843 160.525 73.4319 160.5 76C160.481 77.9623 161 81 161 81C161 81 162.053 82.2619 163 82.5C165.013 83.0063 167 79 167 79C167 79 170.359 74.2987 172 71C173.131 68.7272 172.464 66.5163 174.5 65C175.2 64.4784 175.648 64.1894 176.5 64C177.263 63.8306 177.738 63.8306 178.5 64C179.612 64.247 180.219 64.6718 181 65.5C181.483 66.0122 182 67 182 67C182 67 181.297 68.4913 181 69.5C180.719 70.4551 180.662 71.0177 180.5 72C180.149 74.1279 180.132 75.3473 180 77.5C179.725 81.9826 180 89 180 89H183C183 89 189.265 80.7609 192.5 75C195.452 69.7443 199 61 199 61C199 61 200.375 59.9923 201 60.5C201.606 60.9925 201 62.5 201 62.5C201 62.5 199.279 67.1164 198 70C196.407 73.592 195.428 75.5756 193.5 79C191.693 82.2106 190.757 84.0882 188.5 87C187.397 88.4228 185.5 90.5 185.5 90.5C185.5 90.5 183.626 92.5794 182 93C180.866 93.2934 180.148 93.2335 179 93C177.97 92.7904 177.422 92.5052 176.5 92C174.921 91.1352 173.919 90.5479 173 89C172.178 87.6155 172.26 86.5891 172 85C171.497 81.9166 172 77 172 77L168 82L163 86H160.5C160.5 86 157.75 85.22 156.5 84C155.374 82.9003 155.154 81.9319 154.5 80.5C153.73 78.8151 153 76 153 76L148.5 82C148.5 82 145.603 84.0301 143.5 84C142.505 83.9858 141.933 83.8482 141 83.5C139.933 83.1018 139.364 82.742 138.5 82C137.552 81.1852 137.177 80.5515 136.5 79.5C135.791 78.3984 135.396 77.7486 135 76.5C134.233 74.0803 135 70 135 70L134.5 69.5L127.5 79.5L123.5 83C123.5 83 120.925 84.921 119 85.5C117.493 85.9534 116.563 86.1872 115 86C113.091 85.7713 112.121 85.0349 110.5 84C108.983 83.0312 108.16 82.3765 107 81C105.312 78.9969 104.852 77.4774 104 75C101.905 68.9063 102.355 64.7302 104 58.5C104.583 56.2902 104.916 55.0121 106 53C107.9 49.4729 109.185 46.7248 113 45.5C114.315 45.0779 115.122 44.9102 116.5 45C117.919 45.0925 118.833 45.1884 120 46C121.027 46.7138 121.477 47.3645 122 48.5C122.659 49.9297 122.589 50.9283 122.5 52.5C122.385 54.5354 121.965 55.7045 121 57.5C119.887 59.5709 119.064 60.8729 117 62C115.916 62.592 115.22 62.8074 114 63C112.843 63.1827 111 63 111 63V59.5Z" fill="black"/>
<path d="M141 39H142C142 39 142.731 37.6019 143.5 37C144.328 36.3518 144.99 35.7089 146 36C146.796 36.2294 147.074 36.7897 147.5 37.5C148.743 39.5711 147.367 41.2457 146.5 43.5C145.274 46.688 142 51 142 51H139.5L136.5 43.5C136.5 43.5 135.242 40.3413 136 38.5C136.268 37.849 136.385 37.3419 137 37C137.87 36.5165 139.5 37.5 139.5 37.5L141 39Z" fill="black"/>
</svg>
